<?xml version="1.0" encoding="UTF-8" standalone="no"?>
<!DOCTYPE svg PUBLIC "-//W3C//DTD SVG 1.1//EN"
 "http://www.w3.org/Graphics/SVG/1.1/DTD/svg11.dtd">
<!-- Generated by graphviz version 2.34.0 (20130907.0228)
 -->
<!-- Title: models_diagram Pages: 1 -->
<svg width="2204pt" height="496pt"
 viewBox="0.00 0.00 2204.00 496.00" xmlns="http://www.w3.org/2000/svg" xmlns:xlink="http://www.w3.org/1999/xlink">
<g id="graph0" class="graph" transform="scale(1 1) rotate(0) translate(4 492)">
<title>models_diagram</title>
<polygon fill="white" stroke="white" points="-4,4 -4,-492 2200,-492 2200,4 -4,4"/>
<!-- _diagram_info -->
<g id="node1" class="node"><title>_diagram_info</title>
<text text-anchor="start" x="276.28" y="-471" font-family="Times,serif" font-size="13.00">Models diagram</text>
<text text-anchor="start" x="276.28" y="-455.4" font-family="Times,serif" font-size="13.00">Date: Nov 19 2013 &#45; 14:18</text>
<text text-anchor="start" x="276.28" y="-439.8" font-family="Times,serif" font-size="13.00">Migration version: 104</text>
<text text-anchor="start" x="276.28" y="-424.2" font-family="Times,serif" font-size="13.00">Generated by RailRoady 1.1.1</text>
<text text-anchor="start" x="276.28" y="-408.6" font-family="Times,serif" font-size="13.00">http://railroady.prestonlee.com</text>
</g>
<!-- Article::States -->
<g id="node2" class="node"><title>Article::States</title>
<polygon fill="none" stroke="black" stroke-dasharray="1,5" points="558.067,-463 461.933,-463 461.933,-427 558.067,-427 558.067,-463"/>
<text text-anchor="middle" x="510" y="-439.4" font-family="Times,serif" font-size="14.00">Article::States</text>
</g>
<!-- Article -->
<g id="node3" class="node"><title>Article</title>
<ellipse fill="none" stroke="black" cx="585" cy="-182" rx="37.2739" ry="18"/>
<text text-anchor="middle" x="585" y="-176.4" font-family="Times,serif" font-size="14.00">Article</text>
</g>
<!-- Categorization -->
<g id="node6" class="node"><title>Categorization</title>
<ellipse fill="none" stroke="black" cx="161" cy="-18" rx="67.3273" ry="18"/>
<text text-anchor="middle" x="161" y="-12.4" font-family="Times,serif" font-size="14.00">Categorization</text>
</g>
<!-- Article&#45;&gt;Categorization -->
<g id="edge6" class="edge"><title>Article&#45;&gt;Categorization</title>
<path fill="none" stroke="#1e8aef" d="M543.598,-171.823C521.619,-166.061 494.564,-157.517 472,-146 424.496,-121.754 424.094,-97.0526 376,-74 329.263,-51.5976 272.277,-37.5522 228.719,-29.2668"/>
<ellipse fill="none" stroke="#1e8aef" cx="547.572" cy="-172.835" rx="4.00001" ry="4.00001"/>
<polygon fill="#1e8aef" stroke="#1e8aef" points="228.63,-29.2504 219.614,-23.0091 223.713,-28.3423 218.796,-27.4343 218.796,-27.4343 218.796,-27.4343 223.713,-28.3423 217.979,-31.8595 228.63,-29.2504 228.63,-29.2504"/>
</g>
<!-- Category -->
<g id="node7" class="node"><title>Category</title>
<ellipse fill="none" stroke="black" cx="161" cy="-92" rx="46.1519" ry="18"/>
<text text-anchor="middle" x="161" y="-86.4" font-family="Times,serif" font-size="14.00">Category</text>
</g>
<!-- Article&#45;&gt;Category -->
<g id="edge7" class="edge"><title>Article&#45;&gt;Category</title>
<path fill="none" stroke="#99cac4" d="M539.255,-174.485C496.385,-168.126 430.602,-157.717 374,-146 316.308,-134.057 250.612,-117.209 207.622,-105.736"/>
<polygon fill="#99cac4" stroke="#99cac4" points="539.48,-174.518 548.719,-180.426 544.427,-175.246 549.374,-175.974 549.374,-175.974 549.374,-175.974 544.427,-175.246 550.029,-171.522 539.48,-174.518 539.48,-174.518"/>
<polygon fill="#99cac4" stroke="#99cac4" points="207.395,-105.675 198.902,-98.7394 202.566,-104.381 197.737,-103.086 197.737,-103.086 197.737,-103.086 202.566,-104.381 196.571,-107.432 207.395,-105.675 207.395,-105.675"/>
</g>
<!-- Comment -->
<g id="node8" class="node"><title>Comment</title>
<ellipse fill="none" stroke="black" cx="743" cy="-18" rx="49.1903" ry="18"/>
<text text-anchor="middle" x="743" y="-12.4" font-family="Times,serif" font-size="14.00">Comment</text>
</g>
<!-- Article&#45;&gt;Comment -->
<g id="edge8" class="edge"><title>Article&#45;&gt;Comment</title>
<path fill="none" stroke="#c3cf29" d="M621.172,-167.777C625.467,-166.408 629.812,-165.113 634,-164 675.955,-152.855 700.61,-177.948 730,-146 754.483,-119.387 753.039,-75.1104 748.771,-46.4953"/>
<ellipse fill="none" stroke="#c3cf29" cx="617.337" cy="-169.044" rx="4.00001" ry="4.00001"/>
<polygon fill="#c3cf29" stroke="#c3cf29" points="748.725,-46.2226 751.482,-35.6089 747.885,-41.2936 747.046,-36.3646 747.046,-36.3646 747.046,-36.3646 747.885,-41.2936 742.609,-37.1203 748.725,-46.2226 748.725,-46.2226"/>
</g>
<!-- Article&#45;&gt;Comment -->
<g id="edge9" class="edge"><title>Article&#45;&gt;Comment</title>
<path fill="none" stroke="#708cac" d="M621.138,-167.647C625.439,-166.301 629.795,-165.047 634,-164 684.628,-151.399 709.331,-178.681 750,-146 782.24,-120.092 775.04,-93.8589 764,-54 763.111,-50.7903 761.841,-47.5795 760.359,-44.476"/>
<ellipse fill="none" stroke="#708cac" cx="617.301" cy="-168.902" rx="4.00001" ry="4.00001"/>
<polygon fill="#708cac" stroke="#708cac" points="760.288,-44.3481 759.387,-33.4192 757.869,-39.9724 755.449,-35.5967 755.449,-35.5967 755.449,-35.5967 757.869,-39.9724 751.511,-37.7742 760.288,-44.3481 760.288,-44.3481"/>
<text text-anchor="middle" x="833.493" y="-86.4" font-family="Times,serif" font-size="14.00">published_comments</text>
</g>
<!-- Feedback -->
<g id="node13" class="node"><title>Feedback</title>
<ellipse fill="none" stroke="black" cx="667" cy="-92" rx="48.0563" ry="18"/>
<text text-anchor="middle" x="667" y="-86.4" font-family="Times,serif" font-size="14.00">Feedback</text>
</g>
<!-- Article&#45;&gt;Feedback -->
<g id="edge4" class="edge"><title>Article&#45;&gt;Feedback</title>
<path fill="none" stroke="#c9dd27" d="M586.768,-155.617C588.505,-146.144 591.804,-135.805 598,-128 604.389,-119.952 613.121,-113.588 622.225,-108.621"/>
<ellipse fill="none" stroke="#c9dd27" cx="586.183" cy="-159.675" rx="4.00001" ry="4.00001"/>
<polygon fill="#c9dd27" stroke="#c9dd27" points="622.411,-108.53 633.37,-108.145 626.896,-106.319 631.381,-104.109 631.381,-104.109 631.381,-104.109 626.896,-106.319 629.391,-100.072 622.411,-108.53 622.411,-108.53"/>
</g>
<!-- Article&#45;&gt;Feedback -->
<g id="edge11" class="edge"><title>Article&#45;&gt;Feedback</title>
<path fill="none" stroke="#a24cfb" d="M597.267,-157C602.844,-147.38 609.998,-136.568 618.041,-128 622.846,-122.882 628.501,-118.039 634.229,-113.68"/>
<ellipse fill="none" stroke="#a24cfb" cx="595.271" cy="-160.576" rx="4.00002" ry="4.00002"/>
<polygon fill="#a24cfb" stroke="#a24cfb" points="634.468,-113.508 645.212,-111.316 638.525,-110.586 642.583,-107.664 642.583,-107.664 642.583,-107.664 638.525,-110.586 639.953,-104.013 634.468,-113.508 634.468,-113.508"/>
<text text-anchor="middle" x="674.979" y="-131.4" font-family="Times,serif" font-size="14.00">published_feedback</text>
</g>
<!-- Ping -->
<g id="node18" class="node"><title>Ping</title>
<ellipse fill="none" stroke="black" cx="1046" cy="-92" rx="28.6197" ry="18"/>
<text text-anchor="middle" x="1046" y="-86.4" font-family="Times,serif" font-size="14.00">Ping</text>
</g>
<!-- Article&#45;&gt;Ping -->
<g id="edge2" class="edge"><title>Article&#45;&gt;Ping</title>
<path fill="none" stroke="#e10389" d="M620.909,-167.435C625.276,-166.116 629.709,-164.926 634,-164 719.942,-145.455 744.124,-159.507 831,-146 904.309,-134.602 922.432,-129.551 994,-110 999.87,-108.397 1006.06,-106.531 1012.04,-104.635"/>
<ellipse fill="none" stroke="#e10389" cx="616.976" cy="-168.698" rx="4.00001" ry="4.00001"/>
<polygon fill="#e10389" stroke="#e10389" points="1012.3,-104.549 1023.2,-105.736 1017.06,-103.003 1021.81,-101.456 1021.81,-101.456 1021.81,-101.456 1017.06,-103.003 1020.42,-97.1769 1012.3,-104.549 1012.3,-104.549"/>
</g>
<!-- Resource -->
<g id="node23" class="node"><title>Resource</title>
<ellipse fill="none" stroke="black" cx="1147" cy="-92" rx="46.4511" ry="18"/>
<text text-anchor="middle" x="1147" y="-86.4" font-family="Times,serif" font-size="14.00">Resource</text>
</g>
<!-- Article&#45;&gt;Resource -->
<g id="edge5" class="edge"><title>Article&#45;&gt;Resource</title>
<path fill="none" stroke="#1f2368" d="M620.722,-167.395C625.146,-166.071 629.644,-164.891 634,-164 746.613,-140.961 777.995,-160.67 892,-146 977.677,-134.975 998.755,-129.101 1083,-110 1088.67,-108.713 1094.61,-107.271 1100.47,-105.785"/>
<ellipse fill="none" stroke="#1f2368" cx="616.696" cy="-168.683" rx="4.00001" ry="4.00001"/>
<polygon fill="#1f2368" stroke="#1f2368" points="1100.54,-105.767 1111.35,-107.619 1105.38,-104.515 1110.23,-103.262 1110.23,-103.262 1110.23,-103.262 1105.38,-104.515 1109.1,-98.9057 1100.54,-105.767 1100.54,-105.767"/>
</g>
<!-- Tag -->
<g id="node26" class="node"><title>Tag</title>
<ellipse fill="none" stroke="black" cx="958" cy="-92" rx="27" ry="18"/>
<text text-anchor="middle" x="958" y="-86.4" font-family="Times,serif" font-size="14.00">Tag</text>
</g>
<!-- Article&#45;&gt;Tag -->
<g id="edge12" class="edge"><title>Article&#45;&gt;Tag</title>
<path fill="none" stroke="#94d348" d="M622.905,-166.972C626.624,-165.861 630.366,-164.844 634,-164 697.684,-149.203 715.864,-158.696 780,-146 839.231,-134.275 853.454,-128.283 911,-110 915.714,-108.502 920.658,-106.829 925.498,-105.132"/>
<polygon fill="#94d348" stroke="#94d348" points="622.727,-167.029 611.831,-165.793 617.965,-168.554 613.203,-170.078 613.203,-170.078 613.203,-170.078 617.965,-168.554 614.575,-174.364 622.727,-167.029 622.727,-167.029"/>
<polygon fill="#94d348" stroke="#94d348" points="925.76,-105.038 936.692,-105.902 930.467,-103.352 935.175,-101.665 935.175,-101.665 935.175,-101.665 930.467,-103.352 933.657,-97.4289 925.76,-105.038 925.76,-105.038"/>
</g>
<!-- Trackback -->
<g id="node29" class="node"><title>Trackback</title>
<ellipse fill="none" stroke="black" cx="591" cy="-18" rx="51.1703" ry="18"/>
<text text-anchor="middle" x="591" y="-12.4" font-family="Times,serif" font-size="14.00">Trackback</text>
</g>
<!-- Article&#45;&gt;Trackback -->
<g id="edge3" class="edge"><title>Article&#45;&gt;Trackback</title>
<path fill="none" stroke="#6cadf2" d="M585.337,-155.794C585.491,-146.998 585.707,-137.062 586,-128 586.896,-100.303 588.401,-68.668 589.526,-46.6394"/>
<ellipse fill="none" stroke="#6cadf2" cx="585.272" cy="-159.812" rx="4" ry="4"/>
<polygon fill="#6cadf2" stroke="#6cadf2" points="589.541,-46.3488 594.553,-36.5953 589.8,-41.3555 590.059,-36.3622 590.059,-36.3622 590.059,-36.3622 589.8,-41.3555 585.565,-36.1291 589.541,-46.3488 589.541,-46.3488"/>
</g>
<!-- Article&#45;&gt;Trackback -->
<g id="edge10" class="edge"><title>Article&#45;&gt;Trackback</title>
<path fill="none" stroke="#b83f7c" d="M547.472,-168.032C501.916,-150.134 434.362,-115.343 461.703,-74 478.002,-49.3549 507.822,-35.7186 534.72,-28.1907"/>
<ellipse fill="none" stroke="#b83f7c" cx="551.399" cy="-169.536" rx="4.00001" ry="4.00001"/>
<polygon fill="#b83f7c" stroke="#b83f7c" points="534.783,-28.1748 545.588,-30.0429 539.625,-26.9297 544.468,-25.6846 544.468,-25.6846 544.468,-25.6846 539.625,-26.9297 543.347,-21.3264 534.783,-28.1748 534.783,-28.1748"/>
<text text-anchor="middle" x="522.648" y="-86.4" font-family="Times,serif" font-size="14.00">published_trackbacks</text>
</g>
<!-- Trigger -->
<g id="node30" class="node"><title>Trigger</title>
<ellipse fill="none" stroke="black" cx="328" cy="-92" rx="39.4869" ry="18"/>
<text text-anchor="middle" x="328" y="-86.4" font-family="Times,serif" font-size="14.00">Trigger</text>
</g>
<!-- Article&#45;&gt;Trigger -->
<g id="edge1" class="edge"><title>Article&#45;&gt;Trigger</title>
<path fill="none" stroke="#2c1968" d="M539.912,-178.248C501.162,-174.563 444.505,-165.974 399,-146 389.525,-141.841 370.397,-127.414 354.381,-114.66"/>
<ellipse fill="none" stroke="#2c1968" cx="543.914" cy="-178.606" rx="4" ry="4"/>
<polygon fill="#2c1968" stroke="#2c1968" points="354.149,-114.474 349.176,-104.7 350.253,-111.34 346.356,-108.207 346.356,-108.207 346.356,-108.207 350.253,-111.34 343.536,-111.714 354.149,-114.474 354.149,-114.474"/>
</g>
<!-- Blog -->
<g id="node4" class="node"><title>Blog</title>
<ellipse fill="none" stroke="black" cx="29" cy="-346" rx="29.2299" ry="18"/>
<text text-anchor="middle" x="29" y="-340.4" font-family="Times,serif" font-size="14.00">Blog</text>
</g>
<!-- BlogSweeper -->
<g id="node5" class="node"><title>BlogSweeper</title>
<polygon fill="none" stroke="black" points="1274.57,-364 1183.43,-364 1183.43,-328 1274.57,-328 1274.57,-364"/>
<text text-anchor="middle" x="1229" y="-340.4" font-family="Times,serif" font-size="14.00">BlogSweeper</text>
</g>
<!-- Category&#45;&gt;Categorization -->
<g id="edge18" class="edge"><title>Category&#45;&gt;Categorization</title>
<path fill="none" stroke="#06518b" d="M161,-65.7923C161,-59.5805 161,-52.8963 161,-46.5786"/>
<ellipse fill="none" stroke="#06518b" cx="161" cy="-69.937" rx="4" ry="4"/>
<polygon fill="#06518b" stroke="#06518b" points="161,-46.4407 165.5,-36.4406 161,-41.4407 161,-36.4407 161,-36.4407 161,-36.4407 161,-41.4407 156.5,-36.4407 161,-46.4407 161,-46.4407"/>
</g>
<!-- Category&#45;&gt;Category -->
<g id="edge17" class="edge"><title>Category&#45;&gt;Category</title>
<path fill="none" stroke="#7e4eec" d="M212.347,-98.1072C219.901,-97.1471 225,-95.1113 225,-92 225,-89.1479 220.715,-87.1997 214.183,-86.1552"/>
<ellipse fill="none" stroke="#7e4eec" cx="208.062" cy="-98.4187" rx="4" ry="4"/>
<polygon fill="#7e4eec" stroke="#7e4eec" points="214.036,-86.1428 204.456,-80.8075 209.054,-85.717 204.072,-85.2912 204.072,-85.2912 204.072,-85.2912 209.054,-85.717 203.689,-89.7749 214.036,-86.1428 214.036,-86.1428"/>
<text text-anchor="middle" x="247.935" y="-86.4" font-family="Times,serif" font-size="14.00">children</text>
</g>
<!-- ConfigManager -->
<g id="node9" class="node"><title>ConfigManager</title>
<polygon fill="none" stroke="black" stroke-dasharray="1,5" points="1503.41,-463 1400.59,-463 1400.59,-427 1503.41,-427 1503.41,-463"/>
<text text-anchor="middle" x="1452" y="-439.4" font-family="Times,serif" font-size="14.00">ConfigManager</text>
</g>
<!-- Content -->
<g id="node10" class="node"><title>Content</title>
<ellipse fill="none" stroke="black" cx="506" cy="-346" rx="41.4224" ry="18"/>
<text text-anchor="middle" x="506" y="-340.4" font-family="Times,serif" font-size="14.00">Content</text>
</g>
<!-- Content&#45;&gt;Article -->
<g id="edge13" class="edge"><title>Content&#45;&gt;Article</title>
<path fill="none" stroke="black" d="M497.294,-327.982C493.078,-317.433 489.755,-303.708 494,-292 507.526,-254.692 540.025,-221.203 562.287,-201.483"/>
<polyline fill="none" stroke="black" points="566.317,-197.963 562.551,-201.252 "/>
</g>
<!-- Content&#45;&gt;Feedback -->
<g id="edge28" class="edge"><title>Content&#45;&gt;Feedback</title>
<path fill="none" stroke="black" d="M546.273,-341.654C595.609,-336.893 675.641,-326.824 700,-310 758.594,-269.531 791.307,-230.563 766,-164 755.712,-136.94 728.124,-118.519 704.677,-107.235"/>
<polyline fill="none" stroke="black" points="700.049,-105.073 704.579,-107.19 "/>
</g>
<!-- Notification -->
<g id="node14" class="node"><title>Notification</title>
<ellipse fill="none" stroke="black" cx="700" cy="-182" rx="57.2568" ry="18"/>
<text text-anchor="middle" x="700" y="-176.4" font-family="Times,serif" font-size="14.00">Notification</text>
</g>
<!-- Content&#45;&gt;Notification -->
<g id="edge21" class="edge"><title>Content&#45;&gt;Notification</title>
<path fill="none" stroke="#48bb1e" d="M554.628,-341.358C599.955,-336.914 663.038,-327.695 680,-310 705.337,-283.568 706.415,-238.862 703.92,-210.156"/>
<ellipse fill="none" stroke="#48bb1e" cx="550.368" cy="-341.759" rx="4" ry="4"/>
<polygon fill="#48bb1e" stroke="#48bb1e" points="703.898,-209.952 707.306,-199.529 703.365,-204.98 702.832,-200.009 702.832,-200.009 702.832,-200.009 703.365,-204.98 698.358,-200.489 703.898,-209.952 703.898,-209.952"/>
</g>
<!-- Page -->
<g id="node16" class="node"><title>Page</title>
<ellipse fill="none" stroke="black" cx="365" cy="-256" rx="29.216" ry="18"/>
<text text-anchor="middle" x="365" y="-250.4" font-family="Times,serif" font-size="14.00">Page</text>
</g>
<!-- Content&#45;&gt;Page -->
<g id="edge31" class="edge"><title>Content&#45;&gt;Page</title>
<path fill="none" stroke="black" d="M474.25,-334.473C448.158,-325.668 414.605,-313.935 409,-310 396.73,-301.386 385.926,-288.499 378.095,-277.59"/>
<polyline fill="none" stroke="black" points="375.137,-273.365 378.004,-277.461 "/>
</g>
<!-- Redirect -->
<g id="node21" class="node"><title>Redirect</title>
<ellipse fill="none" stroke="black" cx="273" cy="-256" rx="43.6191" ry="18"/>
<text text-anchor="middle" x="273" y="-250.4" font-family="Times,serif" font-size="14.00">Redirect</text>
</g>
<!-- Content&#45;&gt;Redirect -->
<g id="edge24" class="edge"><title>Content&#45;&gt;Redirect</title>
<path fill="none" stroke="#7497aa" d="M464.74,-330.988C461.452,-329.951 458.176,-328.943 455,-328 424.617,-318.984 415.805,-320.774 386,-310 358.897,-300.203 329.456,-286.28 307.421,-275.163"/>
<polygon fill="#7497aa" stroke="#7497aa" points="465.028,-331.081 473.164,-338.434 469.787,-332.616 474.545,-334.151 474.545,-334.151 474.545,-334.151 469.787,-332.616 475.927,-329.868 465.028,-331.081 465.028,-331.081"/>
<polygon fill="#7497aa" stroke="#7497aa" points="307.367,-275.135 300.505,-266.582 302.913,-272.863 298.459,-270.59 298.459,-270.59 298.459,-270.59 302.913,-272.863 296.414,-274.599 307.367,-275.135 307.367,-275.135"/>
</g>
<!-- Redirection -->
<g id="node22" class="node"><title>Redirection</title>
<ellipse fill="none" stroke="black" cx="273" cy="-182" rx="56.1299" ry="18"/>
<text text-anchor="middle" x="273" y="-176.4" font-family="Times,serif" font-size="14.00">Redirection</text>
</g>
<!-- Content&#45;&gt;Redirection -->
<g id="edge23" class="edge"><title>Content&#45;&gt;Redirection</title>
<path fill="none" stroke="#3b1232" d="M466.993,-330.759C456.303,-325.471 445.368,-318.608 437,-310 412.332,-284.626 428.53,-262.506 403,-238 381.993,-217.836 352.481,-204.541 326.884,-196.083"/>
<ellipse fill="none" stroke="#3b1232" cx="470.694" cy="-332.482" rx="4.00002" ry="4.00002"/>
<polygon fill="#3b1232" stroke="#3b1232" points="326.833,-196.067 318.639,-188.78 322.063,-194.571 317.292,-193.074 317.292,-193.074 317.292,-193.074 322.063,-194.571 315.945,-197.368 326.833,-196.067 326.833,-196.067"/>
</g>
<!-- Content&#45;&gt;Trigger -->
<g id="edge25" class="edge"><title>Content&#45;&gt;Trigger</title>
<path fill="none" stroke="#f24f08" d="M489.623,-321.815C456.075,-274.32 379.811,-166.35 345.408,-117.644"/>
<ellipse fill="none" stroke="#f24f08" cx="492.013" cy="-325.198" rx="4.00002" ry="4.00002"/>
<polygon fill="#f24f08" stroke="#f24f08" points="345.26,-117.436 343.166,-106.671 342.375,-113.352 339.491,-109.268 339.491,-109.268 339.491,-109.268 342.375,-113.352 335.815,-111.864 345.26,-117.436 345.26,-117.436"/>
</g>
<!-- User -->
<g id="node31" class="node"><title>User</title>
<ellipse fill="none" stroke="black" cx="616" cy="-256" rx="28.9087" ry="18"/>
<text text-anchor="middle" x="616" y="-250.4" font-family="Times,serif" font-size="14.00">User</text>
</g>
<!-- Content&#45;&gt;User -->
<g id="edge22" class="edge"><title>Content&#45;&gt;User</title>
<path fill="none" stroke="#88c83c" d="M552.243,-334.321C567.057,-329.027 582.567,-321.264 594,-310 601.192,-302.914 606.138,-293.132 609.488,-283.9"/>
<polygon fill="#88c83c" stroke="#88c83c" points="552.163,-334.347 541.259,-333.178 547.41,-335.901 542.658,-337.455 542.658,-337.455 542.658,-337.455 547.41,-335.901 544.057,-341.732 552.163,-334.347 552.163,-334.347"/>
<polygon fill="#88c83c" stroke="#88c83c" points="609.523,-283.788 616.821,-275.603 611.026,-279.02 612.529,-274.251 612.529,-274.251 612.529,-274.251 611.026,-279.02 608.237,-272.898 609.523,-283.788 609.523,-283.788"/>
<text text-anchor="middle" x="641.607" y="-295.4" font-family="Times,serif" font-size="14.00">notify_users</text>
</g>
<!-- EmailNotifier -->
<g id="node11" class="node"><title>EmailNotifier</title>
<polygon fill="none" stroke="black" points="1620.24,-364 1527.76,-364 1527.76,-328 1620.24,-328 1620.24,-364"/>
<text text-anchor="middle" x="1574" y="-340.4" font-family="Times,serif" font-size="14.00">EmailNotifier</text>
</g>
<!-- Feedback::States -->
<g id="node12" class="node"><title>Feedback::States</title>
<polygon fill="none" stroke="black" stroke-dasharray="1,5" points="1861.15,-463 1750.85,-463 1750.85,-427 1861.15,-427 1861.15,-463"/>
<text text-anchor="middle" x="1806" y="-439.4" font-family="Times,serif" font-size="14.00">Feedback::States</text>
</g>
<!-- Feedback&#45;&gt;Comment -->
<g id="edge20" class="edge"><title>Feedback&#45;&gt;Comment</title>
<path fill="none" stroke="black" d="M683.867,-75.0209C695.281,-64.2078 710.424,-49.8614 722.529,-38.3938"/>
<polyline fill="none" stroke="black" points="726.18,-34.9345 722.55,-38.3732 "/>
</g>
<!-- Feedback&#45;&gt;Trackback -->
<g id="edge46" class="edge"><title>Feedback&#45;&gt;Trackback</title>
<path fill="none" stroke="black" d="M650.133,-75.0209C638.799,-64.2829 623.786,-50.0605 611.724,-38.6332"/>
<polyline fill="none" stroke="black" points="608.083,-35.1834 611.712,-38.6222 "/>
</g>
<!-- NotificationMailer -->
<g id="node15" class="node"><title>NotificationMailer</title>
<polygon fill="none" stroke="black" points="2027.15,-364 1906.85,-364 1906.85,-328 2027.15,-328 2027.15,-364"/>
<text text-anchor="middle" x="1967" y="-340.4" font-family="Times,serif" font-size="14.00">NotificationMailer</text>
</g>
<!-- PageCache -->
<g id="node17" class="node"><title>PageCache</title>
<polygon fill="none" stroke="black" points="2123.15,-364 2044.85,-364 2044.85,-328 2123.15,-328 2123.15,-364"/>
<text text-anchor="middle" x="2084" y="-340.4" font-family="Times,serif" font-size="14.00">PageCache</text>
</g>
<!-- PostType -->
<g id="node19" class="node"><title>PostType</title>
<ellipse fill="none" stroke="black" cx="400" cy="-346" rx="46.2687" ry="18"/>
<text text-anchor="middle" x="400" y="-340.4" font-family="Times,serif" font-size="14.00">PostType</text>
</g>
<!-- Profile -->
<g id="node20" class="node"><title>Profile</title>
<ellipse fill="none" stroke="black" cx="853" cy="-256" rx="36.1907" ry="18"/>
<text text-anchor="middle" x="853" y="-250.4" font-family="Times,serif" font-size="14.00">Profile</text>
</g>
<!-- Redirect&#45;&gt;Redirection -->
<g id="edge36" class="edge"><title>Redirect&#45;&gt;Redirection</title>
<path fill="none" stroke="#36ec26" d="M273,-229.792C273,-223.58 273,-216.896 273,-210.579"/>
<ellipse fill="none" stroke="#36ec26" cx="273" cy="-233.937" rx="4" ry="4"/>
<polygon fill="#36ec26" stroke="#36ec26" points="273,-210.441 277.5,-200.441 273,-205.441 273,-200.441 273,-200.441 273,-200.441 273,-205.441 268.5,-200.441 273,-210.441 273,-210.441"/>
</g>
<!-- Right -->
<g id="node24" class="node"><title>Right</title>
<ellipse fill="none" stroke="black" cx="764" cy="-346" rx="32.2509" ry="18"/>
<text text-anchor="middle" x="764" y="-340.4" font-family="Times,serif" font-size="14.00">Right</text>
</g>
<!-- Right&#45;&gt;Profile -->
<g id="edge40" class="edge"><title>Right&#45;&gt;Profile</title>
<path fill="none" stroke="#aebdd5" d="M785.051,-321.855C793.829,-312.425 804.237,-301.523 814,-292 818.422,-287.686 823.243,-283.198 827.939,-278.932"/>
<polygon fill="#aebdd5" stroke="#aebdd5" points="784.897,-322.023 774.806,-326.315 781.504,-325.696 778.111,-329.368 778.111,-329.368 778.111,-329.368 781.504,-325.696 781.417,-332.422 784.897,-322.023 784.897,-322.023"/>
<polygon fill="#aebdd5" stroke="#aebdd5" points="828.188,-278.709 838.637,-275.382 831.91,-275.37 835.632,-272.032 835.632,-272.032 835.632,-272.032 831.91,-275.37 832.628,-268.682 828.188,-278.709 828.188,-278.709"/>
</g>
<!-- Sidebar -->
<g id="node25" class="node"><title>Sidebar</title>
<ellipse fill="none" stroke="black" cx="894" cy="-346" rx="40.303" ry="18"/>
<text text-anchor="middle" x="894" y="-340.4" font-family="Times,serif" font-size="14.00">Sidebar</text>
</g>
<!-- TextFilter -->
<g id="node27" class="node"><title>TextFilter</title>
<ellipse fill="none" stroke="black" cx="1040" cy="-346" rx="48.4711" ry="18"/>
<text text-anchor="middle" x="1040" y="-340.4" font-family="Times,serif" font-size="14.00">TextFilter</text>
</g>
<!-- Theme -->
<g id="node28" class="node"><title>Theme</title>
<polygon fill="none" stroke="black" points="2196.15,-364 2141.85,-364 2141.85,-328 2196.15,-328 2196.15,-364"/>
<text text-anchor="middle" x="2169" y="-340.4" font-family="Times,serif" font-size="14.00">Theme</text>
</g>
<!-- User&#45;&gt;Article -->
<g id="edge50" class="edge"><title>User&#45;&gt;Article</title>
<path fill="none" stroke="#8824a5" d="M605.631,-230.916C602.642,-223.975 599.367,-216.368 596.323,-209.3"/>
<ellipse fill="none" stroke="#8824a5" cx="607.228" cy="-234.627" rx="4.00002" ry="4.00002"/>
<polygon fill="#8824a5" stroke="#8824a5" points="596.321,-209.293 596.499,-198.329 594.344,-204.701 592.366,-200.109 592.366,-200.109 592.366,-200.109 594.344,-204.701 588.233,-201.888 596.321,-209.293 596.321,-209.293"/>
</g>
<!-- User&#45;&gt;Content -->
<g id="edge49" class="edge"><title>User&#45;&gt;Content</title>
<path fill="none" stroke="#df8071" d="M576.543,-257.931C551.079,-260.839 519.681,-269.245 502.903,-292 497.419,-299.438 496.706,-309.18 497.867,-318.28"/>
<polygon fill="#df8071" stroke="#df8071" points="576.717,-257.915 587.08,-261.501 581.697,-257.467 586.677,-257.019 586.677,-257.019 586.677,-257.019 581.697,-257.467 586.274,-252.537 576.717,-257.915 576.717,-257.915"/>
<polygon fill="#df8071" stroke="#df8071" points="497.874,-318.316 495.408,-329.001 498.848,-323.22 499.821,-328.125 499.821,-328.125 499.821,-328.125 498.848,-323.22 504.235,-327.248 497.874,-318.316 497.874,-318.316"/>
<text text-anchor="middle" x="546.548" y="-295.4" font-family="Times,serif" font-size="14.00">notify_contents</text>
</g>
<!-- User&#45;&gt;Notification -->
<g id="edge48" class="edge"><title>User&#45;&gt;Notification</title>
<path fill="none" stroke="#c4fda4" d="M638.81,-235.449C649.476,-226.307 662.245,-215.362 673.352,-205.841"/>
<ellipse fill="none" stroke="#c4fda4" cx="635.633" cy="-238.172" rx="4.00002" ry="4.00002"/>
<polygon fill="#c4fda4" stroke="#c4fda4" points="673.501,-205.714 684.022,-202.623 677.297,-202.46 681.093,-199.206 681.093,-199.206 681.093,-199.206 677.297,-202.46 678.165,-195.789 673.501,-205.714 673.501,-205.714"/>
</g>
<!-- WebNotifier -->
<g id="node32" class="node"><title>WebNotifier</title>
<polygon fill="none" stroke="black" points="1723.15,-364 1638.85,-364 1638.85,-328 1723.15,-328 1723.15,-364"/>
<text text-anchor="middle" x="1681" y="-340.4" font-family="Times,serif" font-size="14.00">WebNotifier</text>
</g>
<!-- ActiveRecord::Base -->
<g id="node33" class="node"><title>ActiveRecord::Base</title>
<ellipse fill="none" stroke="black" cx="665" cy="-445" rx="88.2033" ry="18"/>
<text text-anchor="middle" x="665" y="-439.4" font-family="Times,serif" font-size="14.00">ActiveRecord::Base</text>
</g>
<!-- ActiveRecord::Base&#45;&gt;Blog -->
<g id="edge14" class="edge"><title>ActiveRecord::Base&#45;&gt;Blog</title>
<path fill="none" stroke="black" d="M635.506,-427.962C616.535,-418.514 591.022,-407.388 567,-402 459.813,-377.957 175.504,-423.499 73,-384 63.0989,-380.185 53.8331,-373.157 46.3824,-366.243"/>
<polyline fill="none" stroke="black" points="42.4374,-362.435 46.0348,-365.908 "/>
</g>
<!-- ActiveRecord::Base&#45;&gt;Categorization -->
<g id="edge16" class="edge"><title>ActiveRecord::Base&#45;&gt;Categorization</title>
<path fill="none" stroke="black" d="M635.059,-427.829C616.127,-418.458 590.816,-407.462 567,-402 397.44,-363.112 346.584,-418.115 176,-384 133.994,-375.599 87,-389.838 87,-347 87,-347 87,-347 87,-91 87,-67.503 106.403,-49.1911 125.338,-36.9151"/>
<polyline fill="none" stroke="black" points="129.617,-34.2337 125.38,-36.8885 "/>
</g>
<!-- ActiveRecord::Base&#45;&gt;Category -->
<g id="edge19" class="edge"><title>ActiveRecord::Base&#45;&gt;Category</title>
<path fill="none" stroke="black" d="M635.056,-427.84C616.123,-418.473 590.812,-407.478 567,-402 484.613,-383.047 267.944,-408.392 187,-384 156.275,-374.741 125,-379.089 125,-347 125,-347 125,-347 125,-181 125,-156.859 136.749,-131.58 146.824,-114.343"/>
<polyline fill="none" stroke="black" points="149.609,-109.702 147.036,-113.989 "/>
</g>
<!-- ActiveRecord::Base&#45;&gt;Content -->
<g id="edge26" class="edge"><title>ActiveRecord::Base&#45;&gt;Content</title>
<path fill="none" stroke="black" d="M638.387,-427.764C609.352,-410.051 563.093,-381.83 533.654,-363.871"/>
<polyline fill="none" stroke="black" points="529.079,-361.08 533.347,-363.684 "/>
</g>
<!-- ActiveRecord::Base&#45;&gt;Notification -->
<g id="edge29" class="edge"><title>ActiveRecord::Base&#45;&gt;Notification</title>
<path fill="none" stroke="black" d="M671.734,-426.913C683.24,-398.386 706.905,-342.732 722,-328 735.662,-314.666 750.711,-326.081 761,-310 783.868,-274.259 747.736,-228.642 722.062,-202.944"/>
<polyline fill="none" stroke="black" points="718.359,-199.301 721.923,-202.807 "/>
</g>
<!-- ActiveRecord::Base&#45;&gt;Ping -->
<g id="edge33" class="edge"><title>ActiveRecord::Base&#45;&gt;Ping</title>
<path fill="none" stroke="black" d="M752.954,-442.794C884.447,-438.571 1117,-420.688 1117,-347 1117,-347 1117,-347 1117,-181 1117,-150.082 1090.13,-123.899 1069.44,-108.327"/>
<polyline fill="none" stroke="black" points="1065.4,-105.356 1069.43,-108.316 "/>
</g>
<!-- ActiveRecord::Base&#45;&gt;PostType -->
<g id="edge34" class="edge"><title>ActiveRecord::Base&#45;&gt;PostType</title>
<path fill="none" stroke="black" d="M630.375,-428.291C611.751,-420.063 588.296,-410.053 567,-402 543.542,-393.129 481.393,-372.986 439.888,-359.696"/>
<polyline fill="none" stroke="black" points="434.933,-358.111 439.695,-359.635 "/>
</g>
<!-- ActiveRecord::Base&#45;&gt;Profile -->
<g id="edge35" class="edge"><title>ActiveRecord::Base&#45;&gt;Profile</title>
<path fill="none" stroke="black" d="M705.756,-428.88C736.437,-415.738 777.73,-394.066 805,-364 827.381,-339.324 840.761,-302.48 847.503,-279.103"/>
<polyline fill="none" stroke="black" points="848.92,-274.041 847.572,-278.856 "/>
</g>
<!-- ActiveRecord::Base&#45;&gt;Redirect -->
<g id="edge37" class="edge"><title>ActiveRecord::Base&#45;&gt;Redirect</title>
<path fill="none" stroke="black" d="M633.044,-428.028C614.225,-419.203 589.725,-408.703 567,-402 470.568,-373.555 428.27,-418.835 344,-364 312.467,-343.481 291.655,-303.52 281.132,-278.665"/>
<polyline fill="none" stroke="black" points="279.164,-273.905 281.074,-278.526 "/>
</g>
<!-- ActiveRecord::Base&#45;&gt;Redirection -->
<g id="edge38" class="edge"><title>ActiveRecord::Base&#45;&gt;Redirection</title>
<path fill="none" stroke="black" d="M634.531,-428.015C615.611,-418.838 590.5,-407.98 567,-402 452.971,-372.983 405.548,-425.112 305,-364 257.983,-335.424 240.327,-325.127 220,-274 214.089,-259.132 214.014,-252.838 220,-238 225.655,-223.981 236.784,-211.541 247.39,-202.053"/>
<polyline fill="none" stroke="black" points="251.263,-198.694 247.485,-201.971 "/>
</g>
<!-- ActiveRecord::Base&#45;&gt;Resource -->
<g id="edge39" class="edge"><title>ActiveRecord::Base&#45;&gt;Resource</title>
<path fill="none" stroke="black" d="M747.216,-438.186C857.183,-429.508 1045.66,-411.216 1109,-384 1133.11,-373.641 1155,-373.237 1155,-347 1155,-347 1155,-347 1155,-181 1155,-158.617 1152.4,-133.162 1150.17,-115.408"/>
<polyline fill="none" stroke="black" points="1149.49,-110.158 1150.13,-115.116 "/>
</g>
<!-- ActiveRecord::Base&#45;&gt;Right -->
<g id="edge41" class="edge"><title>ActiveRecord::Base&#45;&gt;Right</title>
<path fill="none" stroke="black" d="M682.244,-427.104C699.653,-410.047 726.488,-383.754 744.622,-365.987"/>
<polyline fill="none" stroke="black" points="748.579,-362.11 745.007,-365.609 "/>
</g>
<!-- ActiveRecord::Base&#45;&gt;Sidebar -->
<g id="edge42" class="edge"><title>ActiveRecord::Base&#45;&gt;Sidebar</title>
<path fill="none" stroke="black" d="M715.9,-430.267C751.362,-419.79 799.243,-403.803 839,-384 849.809,-378.616 860.997,-371.43 870.438,-364.823"/>
<polyline fill="none" stroke="black" points="874.645,-361.837 870.568,-364.731 "/>
</g>
<!-- ActiveRecord::Base&#45;&gt;Tag -->
<g id="edge43" class="edge"><title>ActiveRecord::Base&#45;&gt;Tag</title>
<path fill="none" stroke="black" d="M738.281,-434.92C826.516,-421.895 963,-394.131 963,-347 963,-347 963,-347 963,-181 963,-158.673 961.376,-133.21 959.979,-115.439"/>
<polyline fill="none" stroke="black" points="959.555,-110.183 959.957,-115.167 "/>
</g>
<!-- ActiveRecord::Base&#45;&gt;TextFilter -->
<g id="edge44" class="edge"><title>ActiveRecord::Base&#45;&gt;TextFilter</title>
<path fill="none" stroke="black" d="M742.973,-436.471C807.332,-428.508 900.225,-412.943 977,-384 989.783,-379.181 1002.96,-371.868 1013.94,-365.012"/>
<polyline fill="none" stroke="black" points="1018.19,-362.313 1013.97,-364.994 "/>
</g>
<!-- ActiveRecord::Base&#45;&gt;Trigger -->
<g id="edge47" class="edge"><title>ActiveRecord::Base&#45;&gt;Trigger</title>
<path fill="none" stroke="black" d="M634.562,-427.889C615.654,-418.665 590.544,-407.803 567,-402 479.027,-380.316 163,-437.606 163,-347 163,-347 163,-347 163,-181 163,-166.169 247.062,-127.677 295.184,-106.857"/>
<polyline fill="none" stroke="black" points="300.01,-104.776 295.419,-106.756 "/>
</g>
<!-- ActiveRecord::Base&#45;&gt;User -->
<g id="edge51" class="edge"><title>ActiveRecord::Base&#45;&gt;User</title>
<path fill="none" stroke="black" d="M669.208,-426.816C677.339,-391.972 693.287,-314.41 680,-292 672.759,-279.787 659.585,-271.558 647.063,-266.166"/>
<polyline fill="none" stroke="black" points="642.127,-264.166 646.761,-266.044 "/>
</g>
<!-- ActionController::Caching::Sweeper -->
<g id="node34" class="node"><title>ActionController::Caching::Sweeper</title>
<ellipse fill="none" stroke="black" cx="1229" cy="-445" rx="153.262" ry="18"/>
<text text-anchor="middle" x="1229" y="-439.4" font-family="Times,serif" font-size="14.00">ActionController::Caching::Sweeper</text>
</g>
<!-- ActionController::Caching::Sweeper&#45;&gt;BlogSweeper -->
<g id="edge15" class="edge"><title>ActionController::Caching::Sweeper&#45;&gt;BlogSweeper</title>
<path fill="none" stroke="black" d="M1229,-426.658C1229,-410.658 1229,-386.811 1229,-369.379"/>
<polyline fill="none" stroke="black" points="1229,-364.192 1229,-369.192 "/>
</g>
<!-- ActiveRecord::Observer -->
<g id="node35" class="node"><title>ActiveRecord::Observer</title>
<ellipse fill="none" stroke="black" cx="1627" cy="-445" rx="105.134" ry="18"/>
<text text-anchor="middle" x="1627" y="-439.4" font-family="Times,serif" font-size="14.00">ActiveRecord::Observer</text>
</g>
<!-- ActiveRecord::Observer&#45;&gt;EmailNotifier -->
<g id="edge27" class="edge"><title>ActiveRecord::Observer&#45;&gt;EmailNotifier</title>
<path fill="none" stroke="black" d="M1617.52,-426.658C1608.71,-410.52 1595.53,-386.399 1585.98,-368.93"/>
<polyline fill="none" stroke="black" points="1583.39,-364.192 1585.79,-368.579 "/>
</g>
<!-- ActiveRecord::Observer&#45;&gt;WebNotifier -->
<g id="edge52" class="edge"><title>ActiveRecord::Observer&#45;&gt;WebNotifier</title>
<path fill="none" stroke="black" d="M1636.65,-426.658C1645.64,-410.52 1659.07,-386.399 1668.79,-368.93"/>
<polyline fill="none" stroke="black" points="1671.43,-364.192 1669,-368.56 "/>
</g>
<!-- ActionMailer::Base -->
<g id="node36" class="node"><title>ActionMailer::Base</title>
<ellipse fill="none" stroke="black" cx="1967" cy="-445" rx="87.2974" ry="18"/>
<text text-anchor="middle" x="1967" y="-439.4" font-family="Times,serif" font-size="14.00">ActionMailer::Base</text>
</g>
<!-- ActionMailer::Base&#45;&gt;NotificationMailer -->
<g id="edge30" class="edge"><title>ActionMailer::Base&#45;&gt;NotificationMailer</title>
<path fill="none" stroke="black" d="M1967,-426.658C1967,-410.658 1967,-386.811 1967,-369.379"/>
<polyline fill="none" stroke="black" points="1967,-364.192 1967,-369.192 "/>
</g>
<!-- Object -->
<g id="node37" class="node"><title>Object</title>
<ellipse fill="none" stroke="black" cx="2139" cy="-445" rx="36.1697" ry="18"/>
<text text-anchor="middle" x="2139" y="-439.4" font-family="Times,serif" font-size="14.00">Object</text>
</g>
<!-- Object&#45;&gt;PageCache -->
<g id="edge32" class="edge"><title>Object&#45;&gt;PageCache</title>
<path fill="none" stroke="black" d="M2129.67,-427.545C2120.46,-411.301 2106.33,-386.376 2096.22,-368.557"/>
<polyline fill="none" stroke="black" points="2093.75,-364.19 2096.21,-368.539 "/>
</g>
<!-- Object&#45;&gt;Theme -->
<g id="edge45" class="edge"><title>Object&#45;&gt;Theme</title>
<path fill="none" stroke="black" d="M2144.23,-427.104C2149.23,-410.929 2156.8,-386.449 2162.25,-368.809"/>
<polyline fill="none" stroke="black" points="2163.73,-364.028 2162.26,-368.805 "/>
</g>
</g>
</svg>
